<svg xmlns="http://www.w3.org/2000/svg" width="400" height="400" viewBox="0 0 400 400">
  <defs>
    <filter id="grain" x="0%" y="0%" width="100%" height="100%">
      <feTurbulence type="fractalNoise" baseFrequency="0.75" numOctaves="2" seed="17"/>
      <feColorMatrix values="0 0 0 0 0.6 0 0 0 0 0.55 0 0 0 0 0.48 0 0 0 0.06 0"/>
      <feComposite operator="in" in2="SourceGraphic"/>
    </filter>
    <radialGradient id="bg" cx="50%" cy="45%" r="60%">
      <stop offset="0%" stop-color="#F8F6F1"/>
      <stop offset="100%" stop-color="#F4EFE6"/>
    </radialGradient>
  </defs>
  <rect width="400" height="400" fill="url(#bg)" rx="12"/>
  <!-- Spiral of dots using golden angle (137.5 degrees) -->
  <!-- Center dots in rust (innermost 5) -->
  <circle cx="200" cy="200" r="4" fill="#A0522D" opacity="0.55"/>
  <circle cx="210" cy="188" r="3.5" fill="#A0522D" opacity="0.5"/>
  <circle cx="192" cy="210" r="3.5" fill="#A0522D" opacity="0.5"/>
  <circle cx="218" cy="206" r="3" fill="#A0522D" opacity="0.45"/>
  <circle cx="186" cy="190" r="3" fill="#A0522D" opacity="0.45"/>
  <!-- Ring 2 - transition -->
  <circle cx="225" cy="178" r="2.8" fill="#A0522D" opacity="0.4"/>
  <circle cx="178" cy="218" r="2.8" fill="#0A0A0A" opacity="0.38"/>
  <circle cx="228" cy="220" r="2.8" fill="#0A0A0A" opacity="0.38"/>
  <circle cx="172" cy="182" r="2.8" fill="#0A0A0A" opacity="0.38"/>
  <!-- Ring 3 -->
  <circle cx="240" cy="165" r="2.5" fill="#0A0A0A" opacity="0.35"/>
  <circle cx="160" cy="235" r="2.5" fill="#0A0A0A" opacity="0.35"/>
  <circle cx="245" cy="235" r="2.5" fill="#0A0A0A" opacity="0.35"/>
  <circle cx="158" cy="168" r="2.5" fill="#0A0A0A" opacity="0.35"/>
  <circle cx="215" cy="152" r="2.5" fill="#0A0A0A" opacity="0.35"/>
  <circle cx="185" cy="248" r="2.5" fill="#0A0A0A" opacity="0.35"/>
  <!-- Ring 4 -->
  <circle cx="258" cy="150" r="2.3" fill="#0A0A0A" opacity="0.32"/>
  <circle cx="142" cy="250" r="2.3" fill="#0A0A0A" opacity="0.32"/>
  <circle cx="262" cy="248" r="2.3" fill="#0A0A0A" opacity="0.32"/>
  <circle cx="140" cy="155" r="2.3" fill="#0A0A0A" opacity="0.32"/>
  <circle cx="200" cy="140" r="2.3" fill="#0A0A0A" opacity="0.32"/>
  <circle cx="200" cy="260" r="2.3" fill="#0A0A0A" opacity="0.32"/>
  <circle cx="255" cy="190" r="2.3" fill="#0A0A0A" opacity="0.32"/>
  <circle cx="145" cy="210" r="2.3" fill="#0A0A0A" opacity="0.32"/>
  <!-- Ring 5 - outermost -->
  <circle cx="278" cy="138" r="2" fill="#0A0A0A" opacity="0.28"/>
  <circle cx="122" cy="262" r="2" fill="#0A0A0A" opacity="0.28"/>
  <circle cx="280" cy="260" r="2" fill="#0A0A0A" opacity="0.28"/>
  <circle cx="120" cy="140" r="2" fill="#0A0A0A" opacity="0.28"/>
  <circle cx="230" cy="128" r="2" fill="#0A0A0A" opacity="0.28"/>
  <circle cx="170" cy="272" r="2" fill="#0A0A0A" opacity="0.28"/>
  <circle cx="275" cy="210" r="2" fill="#0A0A0A" opacity="0.28"/>
  <circle cx="125" cy="190" r="2" fill="#0A0A0A" opacity="0.28"/>
  <circle cx="270" cy="170" r="2" fill="#0A0A0A" opacity="0.28"/>
  <circle cx="130" cy="230" r="2" fill="#0A0A0A" opacity="0.28"/>
  <!-- Ring 6 - far out -->
  <circle cx="295" cy="125" r="1.8" fill="#0A0A0A" opacity="0.22"/>
  <circle cx="105" cy="275" r="1.8" fill="#0A0A0A" opacity="0.22"/>
  <circle cx="300" cy="275" r="1.8" fill="#0A0A0A" opacity="0.22"/>
  <circle cx="100" cy="125" r="1.8" fill="#0A0A0A" opacity="0.22"/>
  <circle cx="250" cy="115" r="1.8" fill="#0A0A0A" opacity="0.22"/>
  <circle cx="150" cy="285" r="1.8" fill="#0A0A0A" opacity="0.22"/>
  <circle cx="295" cy="200" r="1.8" fill="#0A0A0A" opacity="0.22"/>
  <circle cx="105" cy="200" r="1.8" fill="#0A0A0A" opacity="0.22"/>
  <circle cx="290" cy="155" r="1.8" fill="#0A0A0A" opacity="0.22"/>
  <circle cx="110" cy="245" r="1.8" fill="#0A0A0A" opacity="0.22"/>
  <circle cx="175" cy="115" r="1.8" fill="#0A0A0A" opacity="0.22"/>
  <circle cx="225" cy="285" r="1.8" fill="#0A0A0A" opacity="0.22"/>
  <!-- Grain overlay -->
  <rect width="400" height="400" filter="url(#grain)" opacity="0.5" rx="12"/>
</svg>