<svg xmlns="http://www.w3.org/2000/svg" viewBox="0 0 800 800" width="800" height="800">
  <defs>
    <linearGradient id="bg" x1="0" y1="0" x2="1" y2="1">
      <stop offset="0%" stop-color="#F8F6F1"/>
      <stop offset="50%" stop-color="#F4EFE6"/>
      <stop offset="100%" stop-color="#EDE5D5"/>
    </linearGradient>
        <filter id="grain" x="0%" y="0%" width="100%" height="100%">
      <feTurbulence type="fractalNoise" baseFrequency="0.75" numOctaves="2" seed="1"/>
      <feColorMatrix values="0 0 0 0 0.6 0 0 0 0 0.55 0 0 0 0 0.48 0 0 0 0.06 0"/>
      <feComposite operator="in" in2="SourceGraphic"/>
    </filter>
    <filter id="shadow">
      <feDropShadow dx="0" dy="2" stdDeviation="6" flood-color="#0A0A0A" flood-opacity="0.06"/>
    </filter>
  </defs>
  <rect width="800" height="800" fill="url(#bg)"/>
  <g filter="url(#shadow)">
    <!-- Dense neural network / constellation pattern -->
    <!-- Nodes - scattered across canvas with varying sizes -->
    <circle cx="180" cy="160" r="1.5" fill="#0A0A0A" opacity="0.2"/>
    <circle cx="320" cy="140" r="2" fill="#A0522D" opacity="0.25"/>
    <circle cx="460" cy="120" r="1.5" fill="#0A0A0A" opacity="0.18"/>
    <circle cx="580" cy="150" r="1.8" fill="#0A0A0A" opacity="0.2"/>
    <circle cx="680" cy="180" r="1.5" fill="#2D5016" opacity="0.2"/>
    <circle cx="120" cy="250" r="1.8" fill="#0A0A0A" opacity="0.22"/>
    <circle cx="250" cy="230" r="2.5" fill="#0A0A0A" opacity="0.28"/>
    <circle cx="380" cy="210" r="2" fill="#A0522D" opacity="0.25"/>
    <circle cx="520" cy="240" r="2.2" fill="#0A0A0A" opacity="0.25"/>
    <circle cx="640" cy="260" r="1.5" fill="#A0522D" opacity="0.22"/>
    <circle cx="160" cy="340" r="2" fill="#2D5016" opacity="0.25"/>
    <circle cx="290" cy="320" r="2.5" fill="#0A0A0A" opacity="0.3"/>
    <circle cx="420" cy="310" r="2.8" fill="#A0522D" opacity="0.32"/>
    <circle cx="550" cy="330" r="2.2" fill="#0A0A0A" opacity="0.28"/>
    <circle cx="680" cy="350" r="1.8" fill="#0A0A0A" opacity="0.22"/>
    <circle cx="130" cy="430" r="1.5" fill="#0A0A0A" opacity="0.2"/>
    <circle cx="240" cy="410" r="2.5" fill="#A0522D" opacity="0.3"/>
    <circle cx="370" cy="400" r="3" fill="#A0522D" opacity="0.4"/>
    <circle cx="480" cy="420" r="2.8" fill="#0A0A0A" opacity="0.35"/>
    <circle cx="600" cy="440" r="2" fill="#2D5016" opacity="0.25"/>
    <circle cx="710" cy="420" r="1.5" fill="#0A0A0A" opacity="0.18"/>
    <circle cx="150" cy="520" r="1.8" fill="#0A0A0A" opacity="0.22"/>
    <circle cx="280" cy="500" r="2.2" fill="#0A0A0A" opacity="0.28"/>
    <circle cx="400" cy="490" r="2.5" fill="#2D5016" opacity="0.3"/>
    <circle cx="530" cy="510" r="2" fill="#A0522D" opacity="0.25"/>
    <circle cx="660" cy="530" r="1.8" fill="#0A0A0A" opacity="0.22"/>
    <circle cx="120" cy="610" r="1.5" fill="#A0522D" opacity="0.2"/>
    <circle cx="260" cy="590" r="2" fill="#0A0A0A" opacity="0.25"/>
    <circle cx="380" cy="580" r="2.2" fill="#0A0A0A" opacity="0.28"/>
    <circle cx="510" cy="600" r="1.8" fill="#2D5016" opacity="0.22"/>
    <circle cx="630" cy="620" r="1.5" fill="#0A0A0A" opacity="0.2"/>
    <circle cx="200" cy="680" r="1.5" fill="#0A0A0A" opacity="0.18"/>
    <circle cx="340" cy="660" r="1.8" fill="#A0522D" opacity="0.22"/>
    <circle cx="480" cy="680" r="1.5" fill="#0A0A0A" opacity="0.18"/>
    <circle cx="600" cy="700" r="1.5" fill="#2D5016" opacity="0.18"/>
    <!-- Interconnecting lines - nearby nodes connected -->
    <line x1="180" y1="160" x2="320" y2="140" stroke="#0A0A0A" stroke-width="0.2" opacity="0.06"/>
    <line x1="320" y1="140" x2="460" y2="120" stroke="#0A0A0A" stroke-width="0.2" opacity="0.05"/>
    <line x1="460" y1="120" x2="580" y2="150" stroke="#0A0A0A" stroke-width="0.2" opacity="0.06"/>
    <line x1="580" y1="150" x2="680" y2="180" stroke="#0A0A0A" stroke-width="0.2" opacity="0.05"/>
    <line x1="250" y1="230" x2="380" y2="210" stroke="#0A0A0A" stroke-width="0.2" opacity="0.07"/>
    <line x1="380" y1="210" x2="520" y2="240" stroke="#A0522D" stroke-width="0.2" opacity="0.07"/>
    <line x1="520" y1="240" x2="640" y2="260" stroke="#0A0A0A" stroke-width="0.2" opacity="0.06"/>
    <line x1="290" y1="320" x2="420" y2="310" stroke="#0A0A0A" stroke-width="0.25" opacity="0.08"/>
    <line x1="420" y1="310" x2="550" y2="330" stroke="#A0522D" stroke-width="0.2" opacity="0.07"/>
    <line x1="240" y1="410" x2="370" y2="400" stroke="#A0522D" stroke-width="0.25" opacity="0.09"/>
    <line x1="370" y1="400" x2="480" y2="420" stroke="#0A0A0A" stroke-width="0.25" opacity="0.09"/>
    <line x1="480" y1="420" x2="600" y2="440" stroke="#0A0A0A" stroke-width="0.2" opacity="0.07"/>
    <line x1="280" y1="500" x2="400" y2="490" stroke="#0A0A0A" stroke-width="0.2" opacity="0.07"/>
    <line x1="400" y1="490" x2="530" y2="510" stroke="#2D5016" stroke-width="0.2" opacity="0.07"/>
    <line x1="260" y1="590" x2="380" y2="580" stroke="#0A0A0A" stroke-width="0.2" opacity="0.06"/>
    <line x1="380" y1="580" x2="510" y2="600" stroke="#0A0A0A" stroke-width="0.2" opacity="0.06"/>
    <!-- Cross-layer connections -->
    <line x1="320" y1="140" x2="250" y2="230" stroke="#0A0A0A" stroke-width="0.15" opacity="0.05"/>
    <line x1="380" y1="210" x2="420" y2="310" stroke="#A0522D" stroke-width="0.2" opacity="0.06"/>
    <line x1="420" y1="310" x2="370" y2="400" stroke="#A0522D" stroke-width="0.2" opacity="0.07"/>
    <line x1="290" y1="320" x2="240" y2="410" stroke="#0A0A0A" stroke-width="0.2" opacity="0.06"/>
    <line x1="370" y1="400" x2="400" y2="490" stroke="#0A0A0A" stroke-width="0.2" opacity="0.07"/>
    <line x1="480" y1="420" x2="530" y2="510" stroke="#0A0A0A" stroke-width="0.15" opacity="0.05"/>
    <line x1="550" y1="330" x2="600" y2="440" stroke="#0A0A0A" stroke-width="0.15" opacity="0.05"/>
    <line x1="280" y1="500" x2="260" y2="590" stroke="#0A0A0A" stroke-width="0.15" opacity="0.05"/>
    <line x1="400" y1="490" x2="380" y2="580" stroke="#2D5016" stroke-width="0.15" opacity="0.05"/>
    <line x1="160" y1="340" x2="240" y2="410" stroke="#2D5016" stroke-width="0.15" opacity="0.05"/>
    <line x1="120" y1="250" x2="160" y2="340" stroke="#0A0A0A" stroke-width="0.15" opacity="0.05"/>
    <line x1="640" y1="260" x2="680" y2="350" stroke="#0A0A0A" stroke-width="0.15" opacity="0.05"/>
    <line x1="600" y1="440" x2="660" y2="530" stroke="#0A0A0A" stroke-width="0.15" opacity="0.05"/>
    <line x1="510" y1="600" x2="630" y2="620" stroke="#0A0A0A" stroke-width="0.15" opacity="0.05"/>
    <line x1="340" y1="660" x2="380" y2="580" stroke="#A0522D" stroke-width="0.15" opacity="0.05"/>
  </g>
  <rect width="800" height="800" filter="url(#grain)" opacity="0.5"/>
</svg>