<svg xmlns="http://www.w3.org/2000/svg" width="400" height="400" viewBox="0 0 400 400">
  <defs>
    <filter id="grain" x="0%" y="0%" width="100%" height="100%">
      <feTurbulence type="fractalNoise" baseFrequency="0.75" numOctaves="2" seed="1"/>
      <feColorMatrix values="0 0 0 0 0.6 0 0 0 0 0.55 0 0 0 0 0.48 0 0 0 0.06 0"/>
      <feComposite operator="in" in2="SourceGraphic"/>
    </filter>
    <radialGradient id="bg" cx="50%" cy="45%" r="60%">
      <stop offset="0%" stop-color="#F8F6F1"/>
      <stop offset="100%" stop-color="#F4EFE6"/>
    </radialGradient>
  </defs>
  <rect width="400" height="400" fill="url(#bg)" rx="12"/>
  <!-- Outer orbital -->
  <circle cx="200" cy="185" r="145" fill="none" stroke="#0A0A0A" stroke-width="0.4" opacity="0.07"/>
  <circle cx="200" cy="185" r="155" fill="none" stroke="#A0522D" stroke-width="0.3" opacity="0.05" stroke-dasharray="3 7"/>
  <!-- Neural network - radial brain-like pattern -->
  <!-- Center hub -->
  <circle cx="200" cy="185" r="8" fill="#A0522D" opacity="0.15"/>
  <circle cx="200" cy="185" r="5" fill="#A0522D" opacity="0.7"/>
  <!-- Inner ring nodes (6) -->
  <circle cx="200" cy="150" r="3.5" fill="#A0522D" opacity="0.6"/>
  <circle cx="230" cy="162" r="3.5" fill="#A0522D" opacity="0.6"/>
  <circle cx="230" cy="198" r="3.5" fill="#A0522D" opacity="0.6"/>
  <circle cx="200" cy="215" r="3.5" fill="#A0522D" opacity="0.6"/>
  <circle cx="170" cy="198" r="3.5" fill="#A0522D" opacity="0.6"/>
  <circle cx="170" cy="162" r="3.5" fill="#A0522D" opacity="0.6"/>
  <!-- Inner connections to center -->
  <line x1="200" y1="185" x2="200" y2="150" stroke="#0A0A0A" stroke-width="0.8" opacity="0.3"/>
  <line x1="200" y1="185" x2="230" y2="162" stroke="#0A0A0A" stroke-width="0.8" opacity="0.3"/>
  <line x1="200" y1="185" x2="230" y2="198" stroke="#0A0A0A" stroke-width="0.8" opacity="0.3"/>
  <line x1="200" y1="185" x2="200" y2="215" stroke="#0A0A0A" stroke-width="0.8" opacity="0.3"/>
  <line x1="200" y1="185" x2="170" y2="198" stroke="#0A0A0A" stroke-width="0.8" opacity="0.3"/>
  <line x1="200" y1="185" x2="170" y2="162" stroke="#0A0A0A" stroke-width="0.8" opacity="0.3"/>
  <!-- Inner ring cross-connections -->
  <line x1="200" y1="150" x2="230" y2="162" stroke="#A0522D" stroke-width="0.5" opacity="0.2"/>
  <line x1="230" y1="162" x2="230" y2="198" stroke="#A0522D" stroke-width="0.5" opacity="0.2"/>
  <line x1="230" y1="198" x2="200" y2="215" stroke="#A0522D" stroke-width="0.5" opacity="0.2"/>
  <line x1="200" y1="215" x2="170" y2="198" stroke="#A0522D" stroke-width="0.5" opacity="0.2"/>
  <line x1="170" y1="198" x2="170" y2="162" stroke="#A0522D" stroke-width="0.5" opacity="0.2"/>
  <line x1="170" y1="162" x2="200" y2="150" stroke="#A0522D" stroke-width="0.5" opacity="0.2"/>
  <!-- Mid ring nodes (12) -->
  <circle cx="200" cy="118" r="2.8" fill="#0A0A0A" opacity="0.45"/>
  <circle cx="228" cy="125" r="2.8" fill="#0A0A0A" opacity="0.45"/>
  <circle cx="250" cy="147" r="2.8" fill="#0A0A0A" opacity="0.45"/>
  <circle cx="257" cy="175" r="2.8" fill="#0A0A0A" opacity="0.45"/>
  <circle cx="250" cy="205" r="2.8" fill="#0A0A0A" opacity="0.45"/>
  <circle cx="228" cy="230" r="2.8" fill="#0A0A0A" opacity="0.45"/>
  <circle cx="200" cy="242" r="2.8" fill="#0A0A0A" opacity="0.45"/>
  <circle cx="172" cy="230" r="2.8" fill="#0A0A0A" opacity="0.45"/>
  <circle cx="150" cy="205" r="2.8" fill="#0A0A0A" opacity="0.45"/>
  <circle cx="143" cy="175" r="2.8" fill="#0A0A0A" opacity="0.45"/>
  <circle cx="150" cy="147" r="2.8" fill="#0A0A0A" opacity="0.45"/>
  <circle cx="172" cy="125" r="2.8" fill="#0A0A0A" opacity="0.45"/>
  <!-- Mid ring connections to inner -->
  <line x1="200" y1="150" x2="200" y2="118" stroke="#0A0A0A" stroke-width="0.5" opacity="0.2"/>
  <line x1="200" y1="150" x2="228" y2="125" stroke="#0A0A0A" stroke-width="0.5" opacity="0.15"/>
  <line x1="200" y1="150" x2="172" y2="125" stroke="#0A0A0A" stroke-width="0.5" opacity="0.15"/>
  <line x1="230" y1="162" x2="250" y2="147" stroke="#0A0A0A" stroke-width="0.5" opacity="0.2"/>
  <line x1="230" y1="162" x2="257" y2="175" stroke="#0A0A0A" stroke-width="0.5" opacity="0.15"/>
  <line x1="230" y1="198" x2="257" y2="175" stroke="#0A0A0A" stroke-width="0.5" opacity="0.15"/>
  <line x1="230" y1="198" x2="250" y2="205" stroke="#0A0A0A" stroke-width="0.5" opacity="0.2"/>
  <line x1="200" y1="215" x2="228" y2="230" stroke="#0A0A0A" stroke-width="0.5" opacity="0.15"/>
  <line x1="200" y1="215" x2="200" y2="242" stroke="#0A0A0A" stroke-width="0.5" opacity="0.2"/>
  <line x1="200" y1="215" x2="172" y2="230" stroke="#0A0A0A" stroke-width="0.5" opacity="0.15"/>
  <line x1="170" y1="198" x2="150" y2="205" stroke="#0A0A0A" stroke-width="0.5" opacity="0.2"/>
  <line x1="170" y1="198" x2="143" y2="175" stroke="#0A0A0A" stroke-width="0.5" opacity="0.15"/>
  <line x1="170" y1="162" x2="143" y2="175" stroke="#0A0A0A" stroke-width="0.5" opacity="0.15"/>
  <line x1="170" y1="162" x2="150" y2="147" stroke="#0A0A0A" stroke-width="0.5" opacity="0.2"/>
  <!-- Outer fringe nodes (fading) -->
  <circle cx="200" cy="95" r="1.8" fill="#A0522D" opacity="0.25"/>
  <circle cx="270" cy="140" r="1.8" fill="#A0522D" opacity="0.25"/>
  <circle cx="275" cy="195" r="1.8" fill="#A0522D" opacity="0.25"/>
  <circle cx="228" cy="258" r="1.8" fill="#A0522D" opacity="0.25"/>
  <circle cx="172" cy="258" r="1.8" fill="#A0522D" opacity="0.25"/>
  <circle cx="125" cy="195" r="1.8" fill="#A0522D" opacity="0.25"/>
  <circle cx="130" cy="140" r="1.8" fill="#A0522D" opacity="0.25"/>
  <!-- Outer fringe connections -->
  <line x1="200" y1="118" x2="200" y2="95" stroke="#A0522D" stroke-width="0.3" opacity="0.15"/>
  <line x1="250" y1="147" x2="270" y2="140" stroke="#A0522D" stroke-width="0.3" opacity="0.15"/>
  <line x1="257" y1="175" x2="275" y2="195" stroke="#A0522D" stroke-width="0.3" opacity="0.15"/>
  <line x1="228" y1="230" x2="228" y2="258" stroke="#A0522D" stroke-width="0.3" opacity="0.15"/>
  <line x1="172" y1="230" x2="172" y2="258" stroke="#A0522D" stroke-width="0.3" opacity="0.15"/>
  <line x1="143" y1="175" x2="125" y2="195" stroke="#A0522D" stroke-width="0.3" opacity="0.15"/>
  <line x1="150" y1="147" x2="130" y2="140" stroke="#A0522D" stroke-width="0.3" opacity="0.15"/>
  <!-- Role label -->
  <text x="200" y="368" text-anchor="middle" font-family="Inter,sans-serif" font-size="10" fill="#6B6B6B" letter-spacing="0.5">AI Solutions Engineer</text>
  <!-- Grain -->
  <rect width="400" height="400" filter="url(#grain)" opacity="0.5" rx="12"/>
</svg>