<svg xmlns="http://www.w3.org/2000/svg" viewBox="0 0 1400 720" width="1400" height="720" preserveAspectRatio="xMidYMid slice">
  <defs>
    <linearGradient id="bg" x1="0" y1="0" x2="1" y2="1"><stop offset="0%" stop-color="#100908"/><stop offset="100%" stop-color="#140c0a"/></linearGradient>
    <radialGradient id="g1" cx="0.3" cy="0.4" r="0.55"><stop offset="0%" stop-color="#A0522D" stop-opacity="0.22"/><stop offset="100%" stop-color="#A0522D" stop-opacity="0"/></radialGradient>
    <radialGradient id="g2" cx="0.8" cy="0.65" r="0.4"><stop offset="0%" stop-color="#E8B4B0" stop-opacity="0.1"/><stop offset="100%" stop-color="#E8B4B0" stop-opacity="0"/></radialGradient>
  </defs>
  <rect width="1400" height="720" fill="url(#bg)"/>
  <rect width="1400" height="720" fill="url(#g1)"/>
  <rect width="1400" height="720" fill="url(#g2)"/>

  <g stroke="rgba(255,255,255,0.04)" stroke-width="1">
    <line x1="0" y1="180" x2="1400" y2="180"/><line x1="0" y1="360" x2="1400" y2="360"/><line x1="0" y1="540" x2="1400" y2="540"/>
    <line x1="280" y1="0" x2="280" y2="720"/><line x1="560" y1="0" x2="560" y2="720"/><line x1="840" y1="0" x2="840" y2="720"/><line x1="1120" y1="0" x2="1120" y2="720"/>
  </g>

  <!-- Pipeline steps -->
  <rect x="120" y="220" width="148" height="76" rx="8" fill="rgba(45,80,22,0.18)" stroke="rgba(45,80,22,0.5)" stroke-width="1.2"/>
  <text x="194" y="257" font-family="Inter,Helvetica,sans-serif" font-size="12" fill="rgba(100,180,60,0.95)" text-anchor="middle" font-weight="700">TRIGGER</text>
  <text x="194" y="274" font-family="Inter,Helvetica,sans-serif" font-size="9.5" fill="rgba(100,180,60,0.55)" text-anchor="middle">webhook · polling</text>

  <line x1="268" y1="258" x2="332" y2="258" stroke="rgba(255,255,255,0.2)" stroke-width="1.5"/>
  <polygon points="332,254 340,258 332,262" fill="rgba(255,255,255,0.2)"/>

  <rect x="340" y="220" width="148" height="76" rx="8" fill="rgba(160,82,45,0.16)" stroke="rgba(160,82,45,0.45)" stroke-width="1.2"/>
  <text x="414" y="257" font-family="Inter,Helvetica,sans-serif" font-size="12" fill="rgba(200,130,80,0.95)" text-anchor="middle" font-weight="700">PROCESS</text>
  <text x="414" y="274" font-family="Inter,Helvetica,sans-serif" font-size="9.5" fill="rgba(200,130,80,0.55)" text-anchor="middle">transform · enrich</text>

  <line x1="488" y1="258" x2="552" y2="258" stroke="rgba(232,180,176,0.35)" stroke-width="1.5" stroke-dasharray="5 4"/>
  <polygon points="552,254 560,258 552,262" fill="rgba(232,180,176,0.35)"/>

  <!-- Error box -->
  <rect x="560" y="220" width="148" height="76" rx="8" fill="rgba(232,180,176,0.1)" stroke="rgba(232,180,176,0.4)" stroke-width="1.2" stroke-dasharray="6 3"/>
  <text x="634" y="257" font-family="Inter,Helvetica,sans-serif" font-size="12" fill="#E8B4B0" text-anchor="middle" font-weight="700">ERROR</text>
  <text x="634" y="274" font-family="Inter,Helvetica,sans-serif" font-size="9.5" fill="rgba(232,180,176,0.5)" text-anchor="middle">silent failure</text>

  <!-- X mark -->
  <line x1="778" y1="245" x2="796" y2="271" stroke="#E8B4B0" stroke-width="2" opacity="0.65"/>
  <line x1="796" y1="245" x2="778" y2="271" stroke="#E8B4B0" stroke-width="2" opacity="0.65"/>

  <line x1="708" y1="258" x2="820" y2="258" stroke="rgba(232,180,176,0.15)" stroke-width="1" stroke-dasharray="3 6"/>

  <rect x="828" y="220" width="148" height="76" rx="8" fill="rgba(45,80,22,0.16)" stroke="rgba(45,80,22,0.45)" stroke-width="1.2"/>
  <text x="902" y="257" font-family="Inter,Helvetica,sans-serif" font-size="12" fill="rgba(100,180,60,0.95)" text-anchor="middle" font-weight="700">DELIVER</text>
  <text x="902" y="274" font-family="Inter,Helvetica,sans-serif" font-size="9.5" fill="rgba(100,180,60,0.55)" text-anchor="middle">output · notify</text>

  <!-- Drop to review queue -->
  <line x1="634" y1="296" x2="634" y2="380" stroke="rgba(232,180,176,0.25)" stroke-width="1.2" stroke-dasharray="4 4"/>
  <polygon points="630,380 634,390 638,380" fill="rgba(232,180,176,0.25)"/>
  <rect x="534" y="390" width="200" height="72" rx="10" fill="rgba(232,180,176,0.08)" stroke="rgba(232,180,176,0.28)" stroke-width="1.2"/>
  <text x="634" y="425" font-family="Inter,Helvetica,sans-serif" font-size="11" fill="#E8B4B0" text-anchor="middle" font-weight="700">REVIEW QUEUE</text>
  <text x="634" y="443" font-family="Inter,Helvetica,sans-serif" font-size="9.5" fill="rgba(232,180,176,0.45)" text-anchor="middle">human escalation</text>

  <!-- 7 dots -->
  <text x="1072" y="212" font-family="Inter,Helvetica,sans-serif" font-size="9" fill="rgba(255,255,255,0.28)" font-weight="600" letter-spacing="3">THE 7 MISTAKES</text>
  <circle cx="1082" cy="238" r="5.5" fill="none" stroke="rgba(160,82,45,0.6)" stroke-width="1.2"/><circle cx="1082" cy="238" r="2.8" fill="#A0522D" opacity="0.8"/>
  <circle cx="1122" cy="238" r="5.5" fill="none" stroke="rgba(160,82,45,0.6)" stroke-width="1.2"/><circle cx="1122" cy="238" r="2.8" fill="#A0522D" opacity="0.8"/>
  <circle cx="1162" cy="238" r="5.5" fill="none" stroke="rgba(160,82,45,0.6)" stroke-width="1.2"/><circle cx="1162" cy="238" r="2.8" fill="#A0522D" opacity="0.8"/>
  <circle cx="1202" cy="238" r="5.5" fill="none" stroke="rgba(255,255,255,0.14)" stroke-width="1"/><circle cx="1202" cy="238" r="2.8" fill="rgba(255,255,255,0.1)"/>
  <circle cx="1242" cy="238" r="5.5" fill="none" stroke="rgba(255,255,255,0.14)" stroke-width="1"/><circle cx="1242" cy="238" r="2.8" fill="rgba(255,255,255,0.1)"/>
  <circle cx="1282" cy="238" r="5.5" fill="none" stroke="rgba(255,255,255,0.14)" stroke-width="1"/><circle cx="1282" cy="238" r="2.8" fill="rgba(255,255,255,0.1)"/>
  <circle cx="1322" cy="238" r="5.5" fill="none" stroke="rgba(255,255,255,0.14)" stroke-width="1"/><circle cx="1322" cy="238" r="2.8" fill="rgba(255,255,255,0.1)"/>

  <!-- Label -->
  <text x="80" y="86" font-family="Inter,Helvetica,sans-serif" font-size="11" font-weight="700" letter-spacing="5" fill="#A0522D" opacity="0.9">ROI PROTECTION</text>
  <rect x="80" y="94" width="48" height="1.5" fill="#A0522D" opacity="0.4"/>

  <text x="80" y="620" font-family="Georgia,'Times New Roman',serif" font-size="72" font-weight="400" letter-spacing="-2" fill="#FFFFFF" opacity="0.96">PURIST</text>
  <text x="84" y="648" font-family="Inter,Helvetica,sans-serif" font-size="11" font-weight="500" letter-spacing="3" fill="rgba(255,255,255,0.38)">ENGINEERING INSIGHTS  2026</text>
</svg>
