<svg xmlns="http://www.w3.org/2000/svg" viewBox="0 0 1400 720" width="1400" height="720" preserveAspectRatio="xMidYMid slice">
  <defs>
    <linearGradient id="bg" x1="0" y1="0" x2="1" y2="1">
      <stop offset="0%" stop-color="#0A0A0A"/>
      <stop offset="100%" stop-color="#12100a"/>
    </linearGradient>
    <radialGradient id="glow" cx="0.65" cy="0.5" r="0.5">
      <stop offset="0%" stop-color="#C89840" stop-opacity="0.15"/>
      <stop offset="100%" stop-color="#C89840" stop-opacity="0"/>
    </radialGradient>
    <filter id="grain">
      <feTurbulence type="fractalNoise" baseFrequency="0.85" numOctaves="2" seed="14"/>
      <feColorMatrix values="0 0 0 0 1  0 0 0 0 1  0 0 0 0 1  0 0 0 0.04 0"/>
      <feComposite operator="in" in2="SourceGraphic"/>
    </filter>
  </defs>
  <rect width="1400" height="720" fill="url(#bg)"/>
  <rect width="1400" height="720" fill="url(#glow)"/>

  <!-- EKG / heartbeat monitor line -->
  <polyline points="680,360 720,360 750,260 780,440 810,300 840,360 880,360 910,310 940,410 970,360 1020,360 1050,280 1080,420 1110,360 1160,360"
    fill="none" stroke="#C89840" stroke-width="1.8" opacity="0.55" stroke-linecap="round" stroke-linejoin="round"/>

  <!-- Alert dot -->
  <circle cx="1050" cy="280" r="8" fill="#C89840" opacity="0.4"/>
  <circle cx="1050" cy="280" r="16" fill="none" stroke="#C89840" stroke-width="1" opacity="0.2"/>
  <circle cx="1050" cy="280" r="26" fill="none" stroke="#C89840" stroke-width="0.7" opacity="0.1"/>

  <!-- Horizontal baseline -->
  <line x1="680" y1="360" x2="1160" y2="360" stroke="#C89840" stroke-width="0.4" opacity="0.15"/>

  <!-- &lt;4min metric -->
  <text x="680" y="520" font-family="Georgia, serif" font-size="100" fill="#C89840" opacity="0.06" font-weight="bold">&lt;4 min</text>

  <text x="80" y="620" font-family="Inter, sans-serif" font-size="13" fill="#C89840" letter-spacing="5" font-weight="500" opacity="0.7">ERROR HANDLING SYSTEM</text>
  <text x="80" y="668" font-family="Georgia, serif" font-size="34" fill="#F8F6F1" font-weight="400">PURIST · Engineering</text>
  <rect width="1400" height="720" filter="url(#grain)" opacity="0.6"/>
</svg>
