<svg xmlns="http://www.w3.org/2000/svg" viewBox="0 0 1400 720" width="1400" height="720" preserveAspectRatio="xMidYMid slice">
  <defs>
    <linearGradient id="bg" x1="0" y1="0" x2="0" y2="1">
      <stop offset="0%" stop-color="#F8F6F1"/>
      <stop offset="100%" stop-color="#EDE5D5"/>
    </linearGradient>
    <radialGradient id="glow" cx="0.7" cy="0.3" r="0.6">
      <stop offset="0%" stop-color="#A0522D" stop-opacity="0.18"/>
      <stop offset="100%" stop-color="#A0522D" stop-opacity="0"/>
    </radialGradient>
    <filter id="grain" x="0%" y="0%" width="100%" height="100%">
      <feTurbulence type="fractalNoise" baseFrequency="0.85" numOctaves="2" seed="3"/>
      <feColorMatrix values="0 0 0 0 0.6  0 0 0 0 0.55  0 0 0 0 0.48  0 0 0 0.06 0"/>
      <feComposite operator="in" in2="SourceGraphic"/>
    </filter>
  </defs>

  <rect width="1400" height="720" fill="url(#bg)"/>
  <rect width="1400" height="720" fill="url(#glow)"/>

  
  <g stroke="#A0522D" stroke-width="1.2" fill="none" opacity="0.25">
    <path d="M 100 360 C 300 240, 500 480, 700 360 S 1100 240, 1300 360"/>
    <path d="M 100 420 C 300 300, 500 540, 700 420 S 1100 300, 1300 420"/>
    <path d="M 100 480 C 300 360, 500 600, 700 480 S 1100 360, 1300 480"/>
  </g>
  <g fill="#A0522D" opacity="0.4">
    <circle cx="280" cy="200" r="42"/>
    <circle cx="380" cy="240" r="28"/>
    <circle cx="450" cy="180" r="18"/>
  </g>

  <text x="80" y="620" font-family="Inter, sans-serif" font-size="14"
        fill="#6B6B6B" letter-spacing="4" font-weight="500">GUT HEALTH</text>
  <text x="80" y="670" font-family="Georgia, serif" font-size="36"
        fill="#0A0A0A" font-weight="500">PURIST · Automation</text>

  <rect width="1400" height="720" filter="url(#grain)" opacity="0.5"/>
</svg>
