<svg xmlns="http://www.w3.org/2000/svg" viewBox="0 0 1400 720" width="1400" height="720" preserveAspectRatio="xMidYMid slice">
  <defs>
    <linearGradient id="bg" x1="0" y1="0" x2="0" y2="1">
      <stop offset="0%" stop-color="#F4EFE6"/>
      <stop offset="100%" stop-color="#E8DCC5"/>
    </linearGradient>
    <radialGradient id="glow" cx="0.7" cy="0.3" r="0.6">
      <stop offset="0%" stop-color="#2D5016" stop-opacity="0.18"/>
      <stop offset="100%" stop-color="#2D5016" stop-opacity="0"/>
    </radialGradient>
    <filter id="grain" x="0%" y="0%" width="100%" height="100%">
      <feTurbulence type="fractalNoise" baseFrequency="0.85" numOctaves="2" seed="3"/>
      <feColorMatrix values="0 0 0 0 0.6  0 0 0 0 0.55  0 0 0 0 0.48  0 0 0 0.06 0"/>
      <feComposite operator="in" in2="SourceGraphic"/>
    </filter>
  </defs>

  <rect width="1400" height="720" fill="url(#bg)"/>
  <rect width="1400" height="720" fill="url(#glow)"/>

  
  <g opacity="0.32" transform="translate(700, 340)">
    <path d="M 0 -180 L 140 -120 L 140 60 Q 140 160 0 220 Q -140 160 -140 60 L -140 -120 Z" fill="none" stroke="#2D5016" stroke-width="1.5"/>
    <path d="M 0 -140 L 110 -90 L 110 50 Q 110 130 0 180 Q -110 130 -110 50 L -110 -90 Z" fill="#2D5016" opacity="0.18"/>
    <path d="M -50 20 L -10 60 L 60 -20" stroke="#2D5016" stroke-width="3" fill="none" stroke-linecap="round" stroke-linejoin="round"/>
  </g>

  <text x="80" y="620" font-family="Inter, sans-serif" font-size="14"
        fill="#6B6B6B" letter-spacing="4" font-weight="500">DISEASE PREVENTION</text>
  <text x="80" y="670" font-family="Georgia, serif" font-size="36"
        fill="#0A0A0A" font-weight="500">PURIST · Case Study</text>

  <rect width="1400" height="720" filter="url(#grain)" opacity="0.5"/>
</svg>
