<svg xmlns="http://www.w3.org/2000/svg" viewBox="0 0 1400 720" width="1400" height="720" preserveAspectRatio="xMidYMid slice">
  <defs>
    <linearGradient id="bg" x1="0" y1="0" x2="0" y2="1">
      <stop offset="0%" stop-color="#F4EFE6"/>
      <stop offset="100%" stop-color="#EDE5D5"/>
    </linearGradient>
    <radialGradient id="glow" cx="0.7" cy="0.3" r="0.6">
      <stop offset="0%" stop-color="#A0522D" stop-opacity="0.18"/>
      <stop offset="100%" stop-color="#A0522D" stop-opacity="0"/>
    </radialGradient>
    <filter id="grain" x="0%" y="0%" width="100%" height="100%">
      <feTurbulence type="fractalNoise" baseFrequency="0.85" numOctaves="2" seed="3"/>
      <feColorMatrix values="0 0 0 0 0.6  0 0 0 0 0.55  0 0 0 0 0.48  0 0 0 0.06 0"/>
      <feComposite operator="in" in2="SourceGraphic"/>
    </filter>
  </defs>

  <rect width="1400" height="720" fill="url(#bg)"/>
  <rect width="1400" height="720" fill="url(#glow)"/>

  
  <g opacity="0.32" transform="translate(700, 340)">
    <line x1="-180" y1="-100" x2="0" y2="0" stroke="#A0522D" stroke-width="1"/>
    <line x1="0" y1="0" x2="180" y2="-100" stroke="#A0522D" stroke-width="1"/>
    <line x1="0" y1="0" x2="-100" y2="120" stroke="#A0522D" stroke-width="1"/>
    <line x1="0" y1="0" x2="100" y2="120" stroke="#A0522D" stroke-width="1"/>
    <line x1="-180" y1="-100" x2="-260" y2="-180" stroke="#A0522D" stroke-width="1"/>
    <line x1="180" y1="-100" x2="260" y2="-180" stroke="#A0522D" stroke-width="1"/>
    <circle cx="0" cy="0" r="14" fill="#A0522D"/>
    <circle cx="-180" cy="-100" r="10" fill="#A0522D" opacity="0.7"/>
    <circle cx="180" cy="-100" r="10" fill="#A0522D" opacity="0.7"/>
    <circle cx="-100" cy="120" r="8" fill="#A0522D" opacity="0.6"/>
    <circle cx="100" cy="120" r="8" fill="#A0522D" opacity="0.6"/>
    <circle cx="-260" cy="-180" r="6" fill="#A0522D" opacity="0.5"/>
    <circle cx="260" cy="-180" r="6" fill="#A0522D" opacity="0.5"/>
  </g>

  <text x="80" y="620" font-family="Inter, sans-serif" font-size="14"
        fill="#6B6B6B" letter-spacing="4" font-weight="500">NUTRITIONAL SCIENCE</text>
  <text x="80" y="670" font-family="Georgia, serif" font-size="36"
        fill="#0A0A0A" font-weight="500">PURIST · Productivity</text>

  <rect width="1400" height="720" filter="url(#grain)" opacity="0.5"/>
</svg>
