<svg xmlns="http://www.w3.org/2000/svg" viewBox="0 0 1400 720" width="1400" height="720" preserveAspectRatio="xMidYMid slice">
  <defs>
    <linearGradient id="bg" x1="0" y1="0" x2="0" y2="1"><stop offset="0%" stop-color="#0A0A0A"/><stop offset="100%" stop-color="#0d0d0d"/></linearGradient>
    <radialGradient id="g1" cx="0.55" cy="0.45" r="0.5"><stop offset="0%" stop-color="#2D5016" stop-opacity="0.2"/><stop offset="100%" stop-color="#2D5016" stop-opacity="0"/></radialGradient>
    <radialGradient id="g2" cx="0.2" cy="0.7" r="0.35"><stop offset="0%" stop-color="#E8B4B0" stop-opacity="0.1"/><stop offset="100%" stop-color="#E8B4B0" stop-opacity="0"/></radialGradient>
  </defs>
  <rect width="1400" height="720" fill="url(#bg)"/>
  <rect width="1400" height="720" fill="url(#g1)"/>
  <rect width="1400" height="720" fill="url(#g2)"/>
  <g stroke="rgba(255,255,255,0.035)" stroke-width="1">
    <line x1="0" y1="144" x2="1400" y2="144"/><line x1="0" y1="288" x2="1400" y2="288"/><line x1="0" y1="432" x2="1400" y2="432"/><line x1="0" y1="576" x2="1400" y2="576"/>
    <line x1="233" y1="0" x2="233" y2="720"/><line x1="466" y1="0" x2="466" y2="720"/><line x1="700" y1="0" x2="700" y2="720"/><line x1="933" y1="0" x2="933" y2="720"/><line x1="1166" y1="0" x2="1166" y2="720"/>
  </g>
  <!-- Tools comparison: 3 columns -->
  <!-- n8n column -->
  <rect x="160" y="140" width="220" height="320" rx="12" fill="rgba(45,80,22,0.08)" stroke="rgba(45,80,22,0.25)" stroke-width="1"/>
  <text x="270" y="178" font-family="Inter,sans-serif" font-size="13" fill="rgba(45,80,22,0.9)" text-anchor="middle" font-weight="700" letter-spacing="1">n8n</text>
  <line x1="180" y1="192" x2="360" y2="192" stroke="rgba(45,80,22,0.2)" stroke-width="1"/>
  <text x="270" y="220" font-family="Inter,sans-serif" font-size="10" fill="rgba(45,80,22,0.65)" text-anchor="middle">Self-hosted</text>
  <text x="270" y="240" font-family="Inter,sans-serif" font-size="10" fill="rgba(45,80,22,0.65)" text-anchor="middle">Zero marginal cost</text>
  <text x="270" y="260" font-family="Inter,sans-serif" font-size="10" fill="rgba(45,80,22,0.65)" text-anchor="middle">Code nodes (JS/Python)</text>
  <text x="270" y="280" font-family="Inter,sans-serif" font-size="10" fill="rgba(45,80,22,0.65)" text-anchor="middle">Full error routing</text>
  <text x="270" y="300" font-family="Inter,sans-serif" font-size="10" fill="rgba(45,80,22,0.65)" text-anchor="middle">Sub-workflows</text>
  <!-- Score bar -->
  <rect x="180" y="390" width="160" height="8" rx="4" fill="rgba(255,255,255,0.06)"/>
  <rect x="180" y="390" width="148" height="8" rx="4" fill="rgba(45,80,22,0.6)"/>
  <text x="270" y="418" font-family="Inter,sans-serif" font-size="9" fill="rgba(45,80,22,0.5)" text-anchor="middle">Production score: 94/100</text>
  <!-- Make column -->
  <rect x="420" y="140" width="220" height="320" rx="12" fill="rgba(160,82,45,0.07)" stroke="rgba(160,82,45,0.22)" stroke-width="1"/>
  <text x="530" y="178" font-family="Inter,sans-serif" font-size="13" fill="rgba(160,82,45,0.9)" text-anchor="middle" font-weight="700" letter-spacing="1">MAKE</text>
  <line x1="440" y1="192" x2="620" y2="192" stroke="rgba(160,82,45,0.18)" stroke-width="1"/>
  <text x="530" y="220" font-family="Inter,sans-serif" font-size="10" fill="rgba(160,82,45,0.6)" text-anchor="middle">Cloud-hosted</text>
  <text x="530" y="240" font-family="Inter,sans-serif" font-size="10" fill="rgba(160,82,45,0.6)" text-anchor="middle">Per-operation pricing</text>
  <text x="530" y="260" font-family="Inter,sans-serif" font-size="10" fill="rgba(160,82,45,0.6)" text-anchor="middle">Visual scenario editor</text>
  <text x="530" y="280" font-family="Inter,sans-serif" font-size="10" fill="rgba(160,82,45,0.6)" text-anchor="middle">Good error logging</text>
  <text x="530" y="300" font-family="Inter,sans-serif" font-size="10" fill="rgba(160,82,45,0.6)" text-anchor="middle">Iterators &amp; aggregators</text>
  <rect x="440" y="390" width="160" height="8" rx="4" fill="rgba(255,255,255,0.06)"/>
  <rect x="440" y="390" width="120" height="8" rx="4" fill="rgba(160,82,45,0.55)"/>
  <text x="530" y="418" font-family="Inter,sans-serif" font-size="9" fill="rgba(160,82,45,0.5)" text-anchor="middle">Production score: 75/100</text>
  <!-- Zapier column -->
  <rect x="680" y="140" width="220" height="320" rx="12" fill="rgba(232,180,176,0.06)" stroke="rgba(232,180,176,0.18)" stroke-width="1"/>
  <text x="790" y="178" font-family="Inter,sans-serif" font-size="13" fill="rgba(232,180,176,0.8)" text-anchor="middle" font-weight="700" letter-spacing="1">ZAPIER</text>
  <line x1="700" y1="192" x2="880" y2="192" stroke="rgba(232,180,176,0.15)" stroke-width="1"/>
  <text x="790" y="220" font-family="Inter,sans-serif" font-size="10" fill="rgba(232,180,176,0.55)" text-anchor="middle">Cloud-hosted</text>
  <text x="790" y="240" font-family="Inter,sans-serif" font-size="10" fill="rgba(232,180,176,0.55)" text-anchor="middle">Highest per-task cost</text>
  <text x="790" y="260" font-family="Inter,sans-serif" font-size="10" fill="rgba(232,180,176,0.55)" text-anchor="middle">Easiest to start</text>
  <text x="790" y="280" font-family="Inter,sans-serif" font-size="10" fill="rgba(232,180,176,0.55)" text-anchor="middle">Basic error handling</text>
  <text x="790" y="300" font-family="Inter,sans-serif" font-size="10" fill="rgba(232,180,176,0.55)" text-anchor="middle">3000+ connectors</text>
  <rect x="700" y="390" width="160" height="8" rx="4" fill="rgba(255,255,255,0.06)"/>
  <rect x="700" y="390" width="88" height="8" rx="4" fill="rgba(232,180,176,0.4)"/>
  <text x="790" y="418" font-family="Inter,sans-serif" font-size="9" fill="rgba(232,180,176,0.4)" text-anchor="middle">Production score: 55/100</text>
  <!-- Chosen badge -->
  <rect x="160" y="476" width="220" height="28" rx="6" fill="rgba(45,80,22,0.25)" stroke="rgba(45,80,22,0.5)" stroke-width="1"/>
  <text x="270" y="494" font-family="Inter,sans-serif" font-size="9" fill="rgba(45,80,22,0.9)" text-anchor="middle" font-weight="700" letter-spacing="2">PURIST RECOMMENDED</text>
  <line x1="80" y1="578" x2="300" y2="578" stroke="rgba(255,255,255,0.06)" stroke-width="1"/>
  <text x="80" y="562" font-family="Inter,sans-serif" font-size="10" fill="rgba(45,80,22,0.6)" letter-spacing="4" font-weight="600">PLATFORM GUIDE</text>
  <text x="80" y="610" font-family="Georgia,serif" font-size="32" fill="rgba(255,255,255,0.85)" letter-spacing="-0.5">PURIST</text>
  <text x="202" y="610" font-family="Georgia,serif" font-size="32" fill="rgba(255,255,255,0.22)"> · Engineering</text>
</svg>
