<svg xmlns="http://www.w3.org/2000/svg" viewBox="0 0 1400 720" width="1400" height="720" preserveAspectRatio="xMidYMid slice">
  <defs>
    <linearGradient id="bg" x1="0" y1="0" x2="1" y2="1"><stop offset="0%" stop-color="#0A0A0A"/><stop offset="100%" stop-color="#0f0f0f"/></linearGradient>
    <radialGradient id="g1" cx="0.6" cy="0.38" r="0.5"><stop offset="0%" stop-color="#E8B4B0" stop-opacity="0.13"/><stop offset="100%" stop-color="#E8B4B0" stop-opacity="0"/></radialGradient>
    <radialGradient id="g2" cx="0.22" cy="0.68" r="0.4"><stop offset="0%" stop-color="#2D5016" stop-opacity="0.15"/><stop offset="100%" stop-color="#2D5016" stop-opacity="0"/></radialGradient>
  </defs>
  <rect width="1400" height="720" fill="url(#bg)"/>
  <rect width="1400" height="720" fill="url(#g1)"/>
  <rect width="1400" height="720" fill="url(#g2)"/>

  <g stroke="rgba(255,255,255,0.04)" stroke-width="1">
    <line x1="0" y1="144" x2="1400" y2="144"/><line x1="0" y1="288" x2="1400" y2="288"/><line x1="0" y1="432" x2="1400" y2="432"/><line x1="0" y1="576" x2="1400" y2="576"/>
    <line x1="350" y1="0" x2="350" y2="720"/><line x1="700" y1="0" x2="700" y2="720"/><line x1="1050" y1="0" x2="1050" y2="720"/>
  </g>

  <!-- Bar chart left -->
  <text x="120" y="158" font-family="Inter,Helvetica,sans-serif" font-size="9.5" fill="rgba(255,255,255,0.32)" font-weight="600" letter-spacing="3">500 DEPLOYMENTS</text>

  <text x="175" y="210" font-family="Inter,Helvetica,sans-serif" font-size="10" fill="rgba(120,200,70,0.75)" text-anchor="middle">n8n</text>
  <rect x="145" y="215" width="60" height="155" rx="4" fill="rgba(45,80,22,0.55)" stroke="rgba(45,80,22,0.8)" stroke-width="1"/>
  <text x="175" y="384" font-family="Inter,Helvetica,sans-serif" font-size="10" fill="rgba(120,200,70,0.6)" text-anchor="middle">62%</text>

  <text x="285" y="210" font-family="Inter,Helvetica,sans-serif" font-size="10" fill="rgba(200,140,90,0.75)" text-anchor="middle">Make</text>
  <rect x="255" y="255" width="60" height="115" rx="4" fill="rgba(160,82,45,0.5)" stroke="rgba(160,82,45,0.7)" stroke-width="1"/>
  <text x="285" y="384" font-family="Inter,Helvetica,sans-serif" font-size="10" fill="rgba(200,140,90,0.55)" text-anchor="middle">25%</text>

  <text x="395" y="210" font-family="Inter,Helvetica,sans-serif" font-size="10" fill="rgba(232,180,176,0.65)" text-anchor="middle">Zapier</text>
  <rect x="365" y="300" width="60" height="70" rx="4" fill="rgba(232,180,176,0.32)" stroke="rgba(232,180,176,0.45)" stroke-width="1"/>
  <text x="395" y="384" font-family="Inter,Helvetica,sans-serif" font-size="10" fill="rgba(232,180,176,0.45)" text-anchor="middle">13%</text>

  <line x1="120" y1="370" x2="460" y2="370" stroke="rgba(255,255,255,0.1)" stroke-width="1"/>

  <!-- Metrics table right -->
  <text x="680" y="158" font-family="Inter,Helvetica,sans-serif" font-size="9.5" fill="rgba(255,255,255,0.32)" font-weight="600" letter-spacing="3">PRODUCTION METRICS</text>

  <!-- Header row -->
  <rect x="680" y="168" width="580" height="38" rx="0" fill="rgba(255,255,255,0.04)"/>
  <line x1="680" y1="168" x2="1260" y2="168" stroke="rgba(255,255,255,0.06)" stroke-width="1"/>

  <text x="800" y="192" font-family="Inter,Helvetica,sans-serif" font-size="10" fill="rgba(120,200,70,0.8)" text-anchor="middle" font-weight="700">n8n</text>
  <text x="1000" y="192" font-family="Inter,Helvetica,sans-serif" font-size="10" fill="rgba(200,140,90,0.8)" text-anchor="middle" font-weight="700">Make</text>
  <text x="1180" y="192" font-family="Inter,Helvetica,sans-serif" font-size="10" fill="rgba(232,180,176,0.75)" text-anchor="middle" font-weight="700">Zapier</text>

  <!-- Rows -->
  <g font-family="Inter,Helvetica,sans-serif" font-size="11" fill="rgba(255,255,255,0.32)">
    <text x="690" y="228">Error visibility</text>
    <text x="690" y="264">Cost at 100K ops/mo</text>
    <text x="690" y="300">Custom code</text>
    <text x="690" y="336">Uptime</text>
    <text x="690" y="372">Debug tooling</text>
  </g>
  <g font-family="Inter,Helvetica,sans-serif" font-size="11" text-anchor="middle" fill="rgba(120,200,70,0.85)" font-weight="600">
    <text x="800" y="228">Full payload</text>
    <text x="800" y="264">~$40/mo infra</text>
    <text x="800" y="300">JS + Python</text>
    <text x="800" y="336">99.8%</text>
    <text x="800" y="372">Execution log</text>
  </g>
  <g font-family="Inter,Helvetica,sans-serif" font-size="11" text-anchor="middle" fill="rgba(200,140,90,0.75)">
    <text x="1000" y="228">Module log</text>
    <text x="1000" y="264">~$120/mo</text>
    <text x="1000" y="300">Limited</text>
    <text x="1000" y="336">99.6%</text>
    <text x="1000" y="372">Scenario history</text>
  </g>
  <g font-family="Inter,Helvetica,sans-serif" font-size="11" text-anchor="middle" fill="rgba(232,180,176,0.6)">
    <text x="1180" y="228">Basic only</text>
    <text x="1180" y="264">~$600/mo</text>
    <text x="1180" y="300">None</text>
    <text x="1180" y="336">99.5%</text>
    <text x="1180" y="372">Task log</text>
  </g>
  <g stroke="rgba(255,255,255,0.055)" stroke-width="1">
    <line x1="680" y1="206" x2="1260" y2="206"/>
    <line x1="680" y1="242" x2="1260" y2="242"/>
    <line x1="680" y1="278" x2="1260" y2="278"/>
    <line x1="680" y1="314" x2="1260" y2="314"/>
    <line x1="680" y1="350" x2="1260" y2="350"/>
    <line x1="680" y1="386" x2="1260" y2="386"/>
  </g>

  <text x="80" y="86" font-family="Inter,Helvetica,sans-serif" font-size="11" font-weight="700" letter-spacing="5" fill="#E8B4B0" opacity="0.85">PLATFORM ANALYSIS</text>
  <rect x="80" y="94" width="48" height="1.5" fill="#E8B4B0" opacity="0.4"/>
  <text x="80" y="620" font-family="Georgia,'Times New Roman',serif" font-size="72" font-weight="400" letter-spacing="-2" fill="#FFFFFF" opacity="0.96">PURIST</text>
  <text x="84" y="648" font-family="Inter,Helvetica,sans-serif" font-size="11" font-weight="500" letter-spacing="3" fill="rgba(255,255,255,0.38)">ENGINEERING INSIGHTS  2026</text>
</svg>
