<svg xmlns="http://www.w3.org/2000/svg" viewBox="0 0 1400 720" width="1400" height="720" preserveAspectRatio="xMidYMid slice">
  <defs>
    <linearGradient id="bg" x1="0" y1="0" x2="1" y2="1"><stop offset="0%" stop-color="#0A0A0A"/><stop offset="100%" stop-color="#0e0e0e"/></linearGradient>
    <radialGradient id="g1" cx="0.6" cy="0.35" r="0.5"><stop offset="0%" stop-color="#E8B4B0" stop-opacity="0.11"/><stop offset="100%" stop-color="#E8B4B0" stop-opacity="0"/></radialGradient>
    <radialGradient id="g2" cx="0.25" cy="0.65" r="0.4"><stop offset="0%" stop-color="#2D5016" stop-opacity="0.14"/><stop offset="100%" stop-color="#2D5016" stop-opacity="0"/></radialGradient>
  </defs>
  <rect width="1400" height="720" fill="url(#bg)"/>
  <rect width="1400" height="720" fill="url(#g1)"/>
  <rect width="1400" height="720" fill="url(#g2)"/>
  <g stroke="rgba(255,255,255,0.03)" stroke-width="1">
    <line x1="0" y1="144" x2="1400" y2="144"/><line x1="0" y1="288" x2="1400" y2="288"/><line x1="0" y1="432" x2="1400" y2="432"/><line x1="0" y1="576" x2="1400" y2="576"/>
    <line x1="350" y1="0" x2="350" y2="720"/><line x1="700" y1="0" x2="700" y2="720"/><line x1="1050" y1="0" x2="1050" y2="720"/>
  </g>
  <!-- ROI chart bars -->
  <text x="120" y="138" font-family="Inter,sans-serif" font-size="9" fill="rgba(255,255,255,0.2)" font-weight="600" letter-spacing="3">DEPLOYMENT COUNT (500+)</text>
  <!-- Bar chart -->
  <rect x="160" y="420" width="80" height="120" rx="4" fill="rgba(45,80,22,0.6)" stroke="rgba(45,80,22,0.8)" stroke-width="1"/>
  <text x="200" y="414" font-family="Inter,sans-serif" font-size="9" fill="rgba(45,80,22,0.8)" text-anchor="middle">n8n</text>
  <text x="200" y="560" font-family="Inter,sans-serif" font-size="9" fill="rgba(45,80,22,0.5)" text-anchor="middle">62%</text>

  <rect x="290" y="460" width="80" height="80" rx="4" fill="rgba(160,82,45,0.5)" stroke="rgba(160,82,45,0.7)" stroke-width="1"/>
  <text x="330" y="454" font-family="Inter,sans-serif" font-size="9" fill="rgba(160,82,45,0.8)" text-anchor="middle">Make</text>
  <text x="330" y="560" font-family="Inter,sans-serif" font-size="9" fill="rgba(160,82,45,0.5)" text-anchor="middle">25%</text>

  <rect x="420" y="490" width="80" height="50" rx="4" fill="rgba(232,180,176,0.35)" stroke="rgba(232,180,176,0.5)" stroke-width="1"/>
  <text x="460" y="484" font-family="Inter,sans-serif" font-size="9" fill="rgba(232,180,176,0.7)" text-anchor="middle">Zapier</text>
  <text x="460" y="560" font-family="Inter,sans-serif" font-size="9" fill="rgba(232,180,176,0.4)" text-anchor="middle">13%</text>

  <line x1="140" y1="540" x2="540" y2="540" stroke="rgba(255,255,255,0.08)" stroke-width="1"/>

  <!-- Metrics table on right -->
  <text x="680" y="138" font-family="Inter,sans-serif" font-size="9" fill="rgba(255,255,255,0.2)" font-weight="600" letter-spacing="3">PRODUCTION METRICS</text>
  <!-- Header row -->
  <rect x="680" y="150" width="560" height="36" rx="0" fill="rgba(255,255,255,0.03)"/>
  <text x="780" y="173" font-family="Inter,sans-serif" font-size="9" fill="rgba(255,255,255,0.3)" text-anchor="middle" font-weight="600">n8n</text>
  <text x="980" y="173" font-family="Inter,sans-serif" font-size="9" fill="rgba(255,255,255,0.3)" text-anchor="middle" font-weight="600">Make</text>
  <text x="1160" y="173" font-family="Inter,sans-serif" font-size="9" fill="rgba(255,255,255,0.3)" text-anchor="middle" font-weight="600">Zapier</text>
  <!-- Rows -->
  <g font-family="Inter,sans-serif" font-size="10" fill="rgba(255,255,255,0.18)">
    <text x="690" y="208">Error visibility</text>
    <text x="690" y="244">Cost at 100K ops/mo</text>
    <text x="690" y="280">Custom code</text>
    <text x="690" y="316">Uptime reliability</text>
    <text x="690" y="352">Debug tooling</text>
  </g>
  <g font-family="Inter,sans-serif" font-size="10" text-anchor="middle" fill="rgba(45,80,22,0.8)" font-weight="600">
    <text x="780" y="208">Full payload</text>
    <text x="780" y="244">~$40/mo infra</text>
    <text x="780" y="280">JS + Python</text>
    <text x="780" y="316">99.8%</text>
    <text x="780" y="352">Execution log</text>
  </g>
  <g font-family="Inter,sans-serif" font-size="10" text-anchor="middle" fill="rgba(160,82,45,0.7)">
    <text x="980" y="208">Module log</text>
    <text x="980" y="244">~$120/mo</text>
    <text x="980" y="280">Limited</text>
    <text x="980" y="316">99.6%</text>
    <text x="980" y="352">Scenario history</text>
  </g>
  <g font-family="Inter,sans-serif" font-size="10" text-anchor="middle" fill="rgba(232,180,176,0.55)">
    <text x="1160" y="208">Basic only</text>
    <text x="1160" y="244">~$600/mo</text>
    <text x="1160" y="280">None</text>
    <text x="1160" y="316">99.5%</text>
    <text x="1160" y="352">Task log</text>
  </g>
  <!-- Row dividers -->
  <g stroke="rgba(255,255,255,0.05)" stroke-width="1">
    <line x1="680" y1="186" x2="1240" y2="186"/>
    <line x1="680" y1="222" x2="1240" y2="222"/>
    <line x1="680" y1="258" x2="1240" y2="258"/>
    <line x1="680" y1="294" x2="1240" y2="294"/>
    <line x1="680" y1="330" x2="1240" y2="330"/>
    <line x1="680" y1="366" x2="1240" y2="366"/>
  </g>
  <line x1="80" y1="578" x2="300" y2="578" stroke="rgba(255,255,255,0.06)" stroke-width="1"/>
  <text x="80" y="562" font-family="Inter,sans-serif" font-size="10" fill="rgba(232,180,176,0.55)" letter-spacing="4" font-weight="600">PLATFORM ANALYSIS</text>
  <text x="80" y="610" font-family="Georgia,serif" font-size="32" fill="rgba(255,255,255,0.85)" letter-spacing="-0.5">PURIST</text>
  <text x="202" y="610" font-family="Georgia,serif" font-size="32" fill="rgba(255,255,255,0.22)"> · Engineering</text>
</svg>
