<svg xmlns="http://www.w3.org/2000/svg" viewBox="0 0 1400 720" width="1400" height="720" preserveAspectRatio="xMidYMid slice">
  <defs>
    <linearGradient id="bg" x1="0" y1="0" x2="1" y2="1">
      <stop offset="0%" stop-color="#0A0A0A"/>
      <stop offset="100%" stop-color="#0f0c08"/>
    </linearGradient>
    <radialGradient id="glow" cx="0.6" cy="0.5" r="0.55">
      <stop offset="0%" stop-color="#E8B4B0" stop-opacity="0.1"/>
      <stop offset="100%" stop-color="#E8B4B0" stop-opacity="0"/>
    </radialGradient>
    <filter id="grain">
      <feTurbulence type="fractalNoise" baseFrequency="0.85" numOctaves="2" seed="3"/>
      <feColorMatrix values="0 0 0 0 1  0 0 0 0 1  0 0 0 0 1  0 0 0 0.04 0"/>
      <feComposite operator="in" in2="SourceGraphic"/>
    </filter>
  </defs>
  <rect width="1400" height="720" fill="url(#bg)"/>
  <rect width="1400" height="720" fill="url(#glow)"/>

  <!-- Webhook: instant signal -->
  <g fill="none" stroke="#E8B4B0">
    <circle cx="820" cy="260" r="10" fill="#E8B4B0" opacity="0.6"/>
    <!-- Signal arcs -->
    <path d="M790,230 A42 42 0 0 1 850,230" stroke-width="1.5" opacity="0.5" stroke-linecap="round"/>
    <path d="M768,208 A68 68 0 0 1 872,208" stroke-width="1.2" opacity="0.35" stroke-linecap="round"/>
    <path d="M746,186 A96 96 0 0 1 894,186" stroke-width="1" opacity="0.2" stroke-linecap="round"/>
    <!-- Instant line -->
    <line x1="830" y1="260" x2="1080" y2="260" stroke-width="1.5" opacity="0.5" stroke-dasharray="0" stroke-linecap="round"/>
    <polygon points="1072,252 1090,260 1072,268" fill="#E8B4B0" opacity="0.5"/>
  </g>

  <!-- Label: &lt;50ms -->
  <text x="920" y="252" font-family="Inter, sans-serif" font-size="13" fill="#E8B4B0" opacity="0.4" letter-spacing="2">&lt;50ms</text>

  <!-- Polling: repeated slow checks -->
  <g fill="none" stroke="#555">
    <circle cx="820" cy="420" r="8" stroke-width="1" opacity="0.35"/>
    <!-- Repeated poll arrows -->
    <g opacity="0.25" stroke-width="1">
      <line x1="840" y1="420" x2="920" y2="420" stroke-linecap="round"/>
      <line x1="920" y1="412" x2="920" y2="428"/>
      <line x1="940" y1="420" x2="1020" y2="420" stroke-linecap="round"/>
      <line x1="1020" y1="412" x2="1020" y2="428"/>
      <line x1="1040" y1="420" x2="1090" y2="420" stroke-linecap="round" stroke-dasharray="3 3"/>
    </g>
  </g>
  <text x="860" y="412" font-family="Inter, sans-serif" font-size="12" fill="#666" opacity="0.4" letter-spacing="2">60s poll</text>

  <!-- Divider -->
  <line x1="700" y1="345" x2="1300" y2="345" stroke="#333" stroke-width="0.5" opacity="0.4"/>

  <text x="80" y="620" font-family="Inter, sans-serif" font-size="13" fill="#E8B4B0" letter-spacing="5" font-weight="500" opacity="0.6">WEBHOOK VS POLLING</text>
  <text x="80" y="668" font-family="Georgia, serif" font-size="34" fill="#F8F6F1" font-weight="400">PURIST · Architecture</text>
  <rect width="1400" height="720" filter="url(#grain)" opacity="0.6"/>
</svg>
